<svg version="1" xmlns="http://www.w3.org/2000/svg" width="682.667" height="682.667" viewBox="0 0 512.000000 512.000000"><path d="M234.5 75.1c-18.9 2.5-38.6 10.3-51.7 20.7-23.6 18.8-37 42.4-43.5 76.5-1.4 7.2-1.8 14.6-1.8 33.7 0 21.5.3 25.9 2.2 35.5 4 19.4 10 34.8 18.7 47.9 22.3 33.5 52.9 48.6 98.1 48.6 22.9 0 40.4-3.5 57-11.4 11-5.2 18.9-11.1 28.4-21.1 16.3-17.2 26.8-38.9 31.7-66 2.6-14.1 2.6-53.8.1-67.2-3.8-20.3-10.6-38-19.7-51.3-5.5-8-17.6-20.7-25.4-26.7-12.1-9.2-29.5-15.9-48.6-18.8-10.4-1.6-34.2-1.8-45.5-.4zm40 45.6c9.6 2.4 17.3 7 26.1 15.8 13.6 13.5 20.1 29.8 22.5 56.7 2.1 23.8-1.5 47.7-9.6 64.3-11.6 23.8-30.1 35.6-56 35.8-11.7 0-19.7-1.5-28-5.3-25.2-11.5-38.7-36.9-40.2-75.5-1.9-47.3 14.2-79.7 45-90.5 11.4-4 27.3-4.5 40.2-1.3zM134.7 388.7c-.4.3-.7 11.6-.7 25V438h244l-.2-24.8-.3-24.7-121.1-.3c-66.6-.1-121.4.1-121.7.5z"/></svg>